<svg xmlns="http://www.w3.org/2000/svg" viewBox="0 0 36 36">
  <g transform="translate(6,6)">
    <path fill="#ff0000" d="M12,2C8.5,2,6.7,4.4,6.7,4.4S4.9,2,1.4,2C-2.1,2,2.4,8.5,6.7,12.8C11,8.5,15.5,2,12,2z"/>
    <path fill="#4a9c2d" d="M11.5,12.8c0,0-0.8,4.2,0.5,8.2c1.3-4,0.5-8.2,0.5-8.2"/>
  </g>
  <g transform="translate(0,0)">
    <path fill="#ff0000" d="M12,2C8.5,2,6.7,4.4,6.7,4.4S4.9,2,1.4,2C-2.1,2,2.4,8.5,6.7,12.8C11,8.5,15.5,2,12,2z"/>
    <path fill="#4a9c2d" d="M11.5,12.8c0,0-0.8,4.2,0.5,8.2c1.3-4,0.5-8.2,0.5-8.2"/>
  </g>
  <g transform="translate(12,0)">
    <path fill="#ff0000" d="M12,2C8.5,2,6.7,4.4,6.7,4.4S4.9,2,1.4,2C-2.1,2,2.4,8.5,6.7,12.8C11,8.5,15.5,2,12,2z"/>
    <path fill="#4a9c2d" d="M11.5,12.8c0,0-0.8,4.2,0.5,8.2c1.3-4,0.5-8.2,0.5-8.2"/>
  </g>
</svg> 